#tb 0: 1/25
0,          0,          0,        1,   196608, 0x9d705c63
0,          1,          1,        1,   196608, 0x9fbf6f2c
0,          2,          2,        1,   196608, 0x257b7290
